<?xml version="1.0" standalone="no"?>
<svg version="1.0" xmlns="http://www.w3.org/2000/svg"
 width="300px" height="355px" viewBox="0 0 300 355"
 preserveAspectRatio="xMidYMid meet">
<g transform="translate(0.000000,355.000000) scale(0.100000,-0.100000)"
fill="#c13335" stroke="none">
<path d="M1475 3488 c-11 -7 -25 -16 -31 -22 -7 -6 -51 -38 -100 -71 -48 -33
-96 -68 -106 -77 -10 -10 -22 -18 -26 -18 -5 0 -26 -15 -48 -33 -21 -18 -63
-48 -91 -66 -29 -18 -53 -37 -53 -42 0 -5 -5 -9 -11 -9 -6 0 -16 -6 -24 -12
-7 -7 -52 -40 -99 -73 -47 -33 -86 -63 -86 -67 0 -5 -5 -8 -11 -8 -6 0 -23
-10 -38 -22 -15 -13 -38 -31 -52 -40 -13 -10 -54 -39 -91 -65 -36 -27 -76 -55
-88 -63 -13 -8 -28 -20 -34 -26 -6 -5 -38 -29 -71 -52 -124 -85 -130 -96 -120
-198 10 -107 25 -102 26 8 l0 93 161 115 c89 63 243 174 342 246 100 72 294
212 432 312 l252 182 293 -213 c310 -225 373 -271 692 -499 l197 -142 0 -88
c0 -51 4 -88 10 -88 15 0 23 45 18 116 -5 73 -15 87 -113 154 -27 19 -54 38
-60 42 -59 45 -147 108 -152 108 -4 0 -13 7 -22 16 -9 8 -65 51 -126 94 -281
201 -425 305 -459 331 -45 35 -208 150 -241 170 -35 22 -43 23 -70 7z"/>
<path d="M1484 3281 c-10 -10 -100 -77 -199 -148 -489 -350 -933 -674 -945
-688 -32 -38 63 7 108 52 7 7 17 13 21 13 4 0 16 8 27 19 11 10 39 30 61 44
22 14 46 31 54 39 8 7 34 26 59 43 25 16 47 33 50 36 4 5 124 93 231 168 20
14 82 60 139 101 118 86 133 97 183 128 20 13 37 28 37 32 0 5 9 11 20 15 11
3 37 21 59 38 53 42 109 77 125 77 7 0 21 -8 32 -19 11 -10 30 -24 43 -30 12
-7 30 -19 39 -26 25 -21 301 -222 347 -253 39 -26 200 -144 297 -217 25 -19
49 -35 52 -35 3 0 37 -24 75 -52 39 -29 92 -69 120 -88 28 -19 50 -38 51 -42
0 -5 6 -8 13 -8 6 0 25 -11 41 -25 28 -24 56 -33 56 -17 0 8 -40 37 -710 522
-223 161 -419 304 -436 316 -29 23 -31 23 -50 5z"/>
<path d="M1468 2726 c-25 -13 -67 -40 -94 -61 -80 -60 -92 -69 -130 -95 -20
-14 -54 -42 -75 -63 -38 -37 -39 -40 -39 -107 0 -78 15 -120 41 -120 17 0 174
104 206 136 8 8 18 14 22 14 5 0 24 14 42 30 48 42 71 46 111 18 18 -12 35
-25 38 -28 13 -14 186 -133 206 -142 13 -6 24 -15 24 -20 0 -4 9 -8 20 -8 18
0 16 4 -12 28 -18 16 -97 74 -176 131 l-143 103 -52 -36 c-29 -20 -107 -77
-174 -127 l-123 -89 0 92 0 93 175 127 174 127 108 -80 c59 -44 138 -101 175
-126 l68 -47 0 -88 c0 -57 4 -87 10 -83 16 10 12 166 -5 195 -8 14 -15 21 -15
15 0 -5 -6 -3 -13 5 -7 8 -25 24 -41 35 -16 11 -43 30 -60 43 -17 12 -47 33
-67 46 -20 13 -42 31 -50 38 -8 8 -35 26 -60 41 l-46 27 -45 -24z"/>
<path d="M379 2083 c-115 -6 -104 101 -107 -1001 l-2 -956 22 -23 22 -24 279
1 c192 1 307 6 370 16 99 16 232 56 263 79 10 8 24 15 30 15 7 0 52 27 100 59
94 63 212 179 280 277 45 64 120 216 128 261 2 15 12 64 21 108 13 62 17 160
20 445 3 201 5 369 5 373 0 5 80 7 178 5 170 -3 178 -4 211 -28 75 -54 99 -93
115 -181 9 -52 -13 -113 -61 -168 -25 -28 -48 -50 -50 -47 -3 2 -20 -4 -38
-14 -25 -14 -55 -19 -134 -19 -152 -1 -150 0 -150 -176 0 -181 -13 -171 214
-177 187 -4 200 -8 269 -72 117 -106 55 -327 -106 -381 -38 -13 -105 -17 -315
-21 l-268 -4 -77 -78 c-108 -108 -128 -125 -173 -152 -22 -14 -46 -30 -53 -37
-8 -7 -23 -18 -34 -24 -33 -18 -13 -21 27 -5 59 25 157 99 231 175 37 39 72
77 76 86 8 13 46 15 278 15 312 0 342 6 423 85 53 53 77 113 77 197 0 69 -16
111 -59 160 -55 63 -103 76 -307 84 l-179 7 0 142 0 142 120 6 c128 6 171 18
225 63 57 48 83 101 88 179 7 114 -38 194 -141 245 l-60 30 -184 0 -183 0 0
-404 c0 -443 -3 -478 -60 -623 -82 -212 -271 -415 -485 -519 -165 -80 -203
-86 -587 -91 l-338 -5 0 976 0 977 273 -5 c388 -6 583 -43 730 -136 l47 -30 0
-195 c0 -107 4 -195 9 -195 15 0 18 40 17 216 -1 141 -4 173 -18 193 -19 26
-71 61 -92 61 -8 0 -16 4 -18 8 -10 24 -249 84 -383 96 -77 8 -400 13 -486 9z"/>
<path d="M1483 2060 c-19 -20 -21 -41 -27 -388 -4 -202 -6 -432 -6 -512 1 -80
-4 -170 -10 -200 -6 -30 -13 -62 -14 -70 -1 -8 -10 -32 -19 -54 -9 -21 -17
-40 -17 -42 0 -25 -150 -194 -223 -251 -43 -34 -175 -85 -252 -98 -71 -12
-278 -7 -287 7 -4 7 -8 296 -8 642 l0 629 175 -5 c117 -3 179 -8 187 -16 7 -7
18 -12 25 -12 18 0 143 -58 158 -73 6 -7 24 -21 39 -32 16 -11 45 -37 66 -59
21 -22 43 -36 51 -33 9 3 -9 27 -56 74 -52 51 -93 81 -155 112 -114 56 -193
71 -372 71 l-148 0 0 -670 0 -670 148 0 c179 0 258 15 372 71 111 55 250 190
297 289 68 142 66 129 70 733 l4 548 362 -3 362 -3 68 -27 c266 -106 409 -362
357 -639 -12 -64 -69 -188 -101 -220 -15 -15 -19 -24 -11 -27 34 -11 118 -91
152 -144 98 -151 120 -311 66 -471 -60 -178 -195 -317 -367 -379 -62 -22 -77
-23 -544 -28 -264 -4 -481 -7 -483 -8 -2 -1 0 -6 3 -12 4 -6 163 -10 445 -10
345 0 453 3 508 15 240 50 404 206 478 456 23 77 13 248 -19 332 -34 87 -84
162 -147 219 l-51 46 21 34 c11 18 25 44 31 58 5 14 16 38 24 55 20 46 35 154
30 215 -13 136 -14 143 -60 245 -43 96 -162 215 -258 260 -135 62 -113 59
-493 63 -348 4 -352 3 -371 -18z"/>
</g>
</svg>
